<?xml version="1.0" encoding="UTF-8" standalone="no"?>
<svg
   xmlns:dc="http://purl.org/dc/elements/1.1/"
   xmlns:cc="http://creativecommons.org/ns#"
   xmlns:rdf="http://www.w3.org/1999/02/22-rdf-syntax-ns#"
   xmlns:svg="http://www.w3.org/2000/svg"
   xmlns="http://www.w3.org/2000/svg"
   xmlns:sodipodi="http://sodipodi.sourceforge.net/DTD/sodipodi-0.dtd"
   xmlns:inkscape="http://www.inkscape.org/namespaces/inkscape"
   width="1022.7629"
   height="626.02722"
   viewBox="0 0 270.60602 165.63638"
   version="1.1"
   id="svg8"
   inkscape:version="1.0.2-2 (e86c870879, 2021-01-15)"
   sodipodi:docname="palette-lab-logo.svg">
  <defs
     id="defs2" />
  <sodipodi:namedview
     id="base"
     pagecolor="#444444"
     bordercolor="#666666"
     borderopacity="1.0"
     inkscape:pageopacity="1"
     inkscape:pageshadow="2"
     inkscape:zoom="0.61859457"
     inkscape:cx="468.00197"
     inkscape:cy="270.48514"
     inkscape:document-units="px"
     inkscape:current-layer="g893"
     inkscape:document-rotation="0"
     showgrid="false"
     inkscape:pagecheckerboard="false"
     borderlayer="true"
     inkscape:showpageshadow="false"
     inkscape:snap-page="true"
     inkscape:window-width="1600"
     inkscape:window-height="847"
     inkscape:window-x="-8"
     inkscape:window-y="-8"
     inkscape:window-maximized="1"
     objecttolerance="10"
     guidetolerance="10"
     units="px"
     showguides="true"
     inkscape:guide-bbox="true"
     lock-margins="false"
     scale-x="0.20001"
     fit-margin-top="0"
     fit-margin-left="0"
     fit-margin-right="0"
     fit-margin-bottom="1.5">
    <sodipodi:guide
       position="100.53725,177.76438"
       orientation="1,0"
       id="guide880" />
    <sodipodi:guide
       position="87.301056,247.85649"
       orientation="1,0"
       id="guide882" />
    <sodipodi:guide
       position="114.01036,223.5918"
       orientation="1,0"
       id="guide884" />
    <sodipodi:guide
       position="-108.48691,83.03338"
       orientation="0,-1"
       id="guide886" />
    <sodipodi:guide
       position="-160.825,-22.707666"
       orientation="0,-1"
       id="guide888" />
    <sodipodi:guide
       position="60.943645,116.23885"
       orientation="1,0"
       id="guide890" />
    <sodipodi:guide
       position="140.31374,94.41417"
       orientation="1,0"
       id="guide892" />
    <sodipodi:guide
       position="-55.982035,17.690696"
       orientation="0,-1"
       id="guide894" />
    <sodipodi:guide
       position="270.57113,111.92081"
       orientation="1,0"
       id="guide902" />
  </sodipodi:namedview>
  <metadata
     id="metadata5">
    <rdf:RDF>
      <cc:Work
         rdf:about="">
        <dc:format>image/svg+xml</dc:format>
        <dc:type
           rdf:resource="http://purl.org/dc/dcmitype/StillImage" />
        <dc:title />
      </cc:Work>
    </rdf:RDF>
  </metadata>
  <g
     inkscape:groupmode="layer"
     id="layer1"
     inkscape:label="google font and license"
     style="display:none"
     sodipodi:insensitive="true"
     transform="translate(-11.591763,-0.05852532)">
    <text
       xml:space="preserve"
       style="font-style:normal;font-weight:normal;font-size:10.5833px;line-height:1.25;font-family:sans-serif;fill:#000000;fill-opacity:1;stroke:none;stroke-width:0.264583"
       x="11.506157"
       y="146.61499"
       id="text851"><tspan
         sodipodi:role="line"
         id="tspan849"
         x="11.506157"
         y="146.61499"
         style="stroke-width:0.264583">https://https://fonts.google.com/specimen/Ojuju</tspan><tspan
         sodipodi:role="line"
         x="11.506157"
         y="159.84412"
         style="stroke-width:0.264583"
         id="tspan853">developers.google.com/fonts/faq</tspan></text>
  </g>
  <g
     inkscape:groupmode="layer"
     id="layer4"
     inkscape:label="in golden ratio (white stroke)"
     transform="translate(-31.666803,-76.449768)"
     style="display:inline">
    <path
       style="display:inline;fill:none;stroke:#eeeeee;stroke-width:8.46667;stroke-linecap:butt;stroke-linejoin:round;stroke-miterlimit:4;stroke-dasharray:none;stroke-opacity:1"
       d="m 74.938646,80.83925 v 96.78129 L 35.89978,237.45593 H 153.45745 L 114.49861,177.62054 V 80.83925 Z"
       id="path891" />
  </g>
  <g
     inkscape:groupmode="layer"
     id="g893"
     inkscape:label="in golden ratio"
     style="display:inline"
     transform="translate(-31.666803,-76.449768)">
    <path
       style="display:inline;fill:none;stroke:#111111;stroke-width:7.9375;stroke-linecap:butt;stroke-linejoin:round;stroke-miterlimit:4;stroke-dasharray:none;stroke-opacity:1"
       d="m 74.938646,80.83925 v 96.78129 L 35.89978,237.45593 H 153.45745 L 114.49861,177.62054 V 80.83925 Z"
       id="path896" />
  </g>
  <g
     inkscape:groupmode="layer"
     id="layer3"
     inkscape:label="text"
     style="display:inline"
     transform="translate(-31.666803,-76.449768)">
    <g
       aria-label="palette L*a*b*"
       id="text865"
       style="font-style:normal;font-weight:normal;font-size:53.7039px;line-height:1.25;font-family:sans-serif;display:inline;fill:#111111;fill-opacity:1;stroke:#eeeeee;stroke-width:0.264583;stroke-miterlimit:4;stroke-dasharray:none;stroke-opacity:1"
       transform="translate(13.758328,-0.26458334)">
      <path
         d="m 131.94839,127.70424 q 0.0537,-3.32964 0.0537,-5.80002 0.0537,-2.47038 0.0537,-4.29631 0.0537,-1.77223 0.0537,-3.16853 0.0537,-1.39631 0.0537,-2.57779 0,-1.23519 0,-2.52408 0,-1.3426 0,-2.52409 0,-1.23519 -0.0537,-2.63149 0,-1.3963 -0.0537,-3.22223 0,-1.879639 -0.0537,-4.403722 0,-2.524084 -0.0537,-6.014837 h 2.14816 q -0.0537,0.805558 -0.10741,1.611117 0,0.751854 0,1.23519 0,1.074077 0.0537,1.503709 0.0537,0.375927 0.37593,0.375927 0.26852,0 0.53704,-0.26852 0.26852,-0.322223 0.85926,-1.181485 0.53704,-0.859263 1.55741,-1.772229 1.02038,-0.96667 2.6852,-1.611117 1.66482,-0.644447 4.1352,-0.644447 5.26298,0 8.10929,3.598162 2.90001,3.544457 2.90001,10.150032 0,6.65929 -2.90001,10.25745 -2.84631,3.54446 -8.10929,3.54446 -2.36297,0 -4.02779,-0.69815 -1.66482,-0.64445 -2.7389,-1.55742 -1.07408,-0.96667 -1.61112,-1.77223 -0.59074,-0.85926 -0.85926,-1.12778 -0.26852,-0.32222 -0.53704,-0.32222 -0.32222,0 -0.37593,0.37593 -0.0537,0.37592 -0.0537,1.34259 0,0.96667 0,2.57779 0,1.55741 0,3.38335 0.0537,1.82593 0.0537,3.49075 0,1.71852 0,2.95371 0.0537,1.23519 0.0537,1.71853 z m 11.86856,-14.50005 q 4.83335,0 7.25003,-2.52409 2.47038,-2.57778 2.47038,-7.14262 0,-4.564827 -2.47038,-7.035206 -2.41668,-2.524084 -7.25003,-2.524084 -4.88705,0 -7.46484,2.416676 -2.52408,2.362971 -2.52408,7.142614 0,4.83336 2.52408,7.25003 2.57779,2.41668 7.46484,2.41668 z"
         style="font-style:normal;font-variant:normal;font-weight:500;font-stretch:normal;font-size:53.7039px;font-family:Ojuju;-inkscape-font-specification:'Ojuju Medium';stroke:#eeeeee;stroke-width:0.264583;stroke-miterlimit:4;stroke-dasharray:none;stroke-opacity:1;fill:#111111;fill-opacity:1"
         id="path859" />
      <path
         d="m 171.36701,117.33939 q -5.26298,0 -8.16299,-3.54446 -2.84631,-3.54446 -2.84631,-10.15004 0,-6.659281 2.84631,-10.257442 2.90001,-3.598162 8.16299,-3.598162 2.47038,0 4.1352,0.644447 1.66482,0.644447 2.63149,1.611117 1.02037,0.912966 1.61112,1.772229 0.59074,0.859262 0.85926,1.181485 0.26852,0.26852 0.53704,0.26852 0.32222,0 0.37593,-0.375927 0.0537,-0.429632 0.0537,-1.503709 0,-0.483336 -0.0537,-1.23519 -0.0537,-0.805559 -0.10741,-1.611117 h 2.20186 q -0.0537,2.738899 -0.10741,4.672239 -0.0537,1.879637 -0.10741,3.275938 0,1.396301 0,2.577792 0,1.18148 0,2.57778 0,1.3426 0,2.52409 0,1.12778 0,2.52408 0.0537,1.3426 0.10741,3.27594 0.0537,1.87963 0.10741,4.61853 h -2.20186 q 0.0537,-0.80556 0.10741,-1.61111 0.0537,-0.80556 0.0537,-1.39631 0,-0.96667 -0.0537,-1.34259 -0.0537,-0.37593 -0.37593,-0.37593 -0.26852,0 -0.53704,0.32222 -0.26852,0.26852 -0.85926,1.12778 -0.59075,0.80556 -1.61112,1.77223 -0.96667,0.91297 -2.63149,1.55742 -1.66482,0.69815 -4.1352,0.69815 z m 0.32222,-4.1352 q 4.94076,0 7.46484,-2.36298 2.52409,-2.41667 2.52409,-7.19632 0,-4.833349 -2.52409,-7.250024 -2.52408,-2.416676 -7.46484,-2.416676 -4.77964,0 -7.25002,2.577788 -2.41668,2.524083 -2.41668,7.088912 0,4.56483 2.41668,7.08892 2.47038,2.47038 7.25002,2.47038 z"
         style="font-style:normal;font-variant:normal;font-weight:500;font-stretch:normal;font-size:53.7039px;font-family:Ojuju;-inkscape-font-specification:'Ojuju Medium';stroke:#eeeeee;stroke-width:0.264583;stroke-miterlimit:4;stroke-dasharray:none;stroke-opacity:1;fill:#111111;fill-opacity:1"
         id="path861" />
      <path
         d="m 188.49846,116.58753 v -3.49075 q 0.85926,0.0537 1.55741,0.0537 0.75185,0 1.3963,0 1.45001,0 1.98704,-0.10741 0.59075,-0.1074 0.80556,-0.26851 0.21482,-0.16112 0.32223,-0.48334 0.1074,-0.32222 0.16111,-1.12778 0.10741,-0.85926 0.10741,-2.52409 0.0537,-1.66482 0.0537,-4.45742 0.0537,-2.84631 0.0537,-7.142617 0,-4.242608 -0.0537,-7.035211 0,-2.792603 -0.0537,-4.40372 0,-1.664821 -0.10741,-2.524083 -0.0537,-0.859263 -0.16111,-1.181486 -0.10741,-0.322223 -0.32223,-0.429631 -0.21481,-0.214816 -0.75185,-0.26852 -0.53704,-0.107407 -1.82593,-0.107407 -0.53704,0 -1.12779,0 -0.59074,0 -1.28889,0.0537 v -4.296312 h 7.46484 q 0,1.342598 -0.0537,2.631492 0,1.235189 0,2.738898 0,1.50371 0,3.544458 0,1.987044 0,4.833351 0,2.792603 0,6.712987 0,4.242611 0,7.035211 0,2.7389 0.0537,4.35002 0.0537,1.61112 0.10741,2.47038 0.10741,0.80556 0.21482,1.12778 0.16111,0.32222 0.32222,0.48334 0.26852,0.21481 0.85926,0.32222 0.59074,0.0537 2.09445,0.0537 0.59075,0 1.18149,0 0.64445,0 1.3963,-0.0537 v 3.49075 z"
         style="font-style:normal;font-variant:normal;font-weight:500;font-stretch:normal;font-size:53.7039px;font-family:Ojuju;-inkscape-font-specification:'Ojuju Medium';stroke:#eeeeee;stroke-width:0.264583;stroke-miterlimit:4;stroke-dasharray:none;stroke-opacity:1;fill:#111111;fill-opacity:1"
         id="path863" />
      <path
         d="m 219.05586,117.33939 q -3.81297,0 -6.39076,-1.07408 -2.52408,-1.12778 -4.0815,-3.06112 -1.55741,-1.98705 -2.25556,-4.56484 -0.64445,-2.57778 -0.64445,-5.5315 0,-4.564828 1.55741,-7.464839 1.55742,-2.953714 4.1352,-4.403719 2.57779,-1.450006 5.58521,-1.450006 4.40372,0 6.8204,1.664821 2.47038,1.664821 3.49075,4.725943 1.02037,3.007419 1.02037,7.19632 h -20.89081 q 0.1074,1.98705 0.64444,3.81298 0.53704,1.77223 1.77223,3.16853 1.23519,1.3426 3.27594,2.14816 2.04075,0.75185 5.10187,0.75185 2.25556,0 4.24261,-0.32222 2.04075,-0.37593 4.40372,-1.02038 v 4.29631 q -2.14816,0.64445 -3.97409,0.85927 -1.77223,0.26852 -3.81298,0.26852 z m 7.35744,-15.84265 q 0,-3.651869 -2.47038,-5.746321 -2.47038,-2.148156 -6.98151,-2.148156 -2.52408,0 -4.67224,0.96667 -2.09445,0.96667 -3.38334,2.738899 -1.23519,1.772229 -1.39631,4.188908 z"
         style="font-style:normal;font-variant:normal;font-weight:500;font-stretch:normal;font-size:53.7039px;font-family:Ojuju;-inkscape-font-specification:'Ojuju Medium';stroke:#eeeeee;stroke-width:0.264583;stroke-miterlimit:4;stroke-dasharray:none;stroke-opacity:1;fill:#111111;fill-opacity:1"
         id="path865" />
      <path
         d="m 242.25589,117.33939 q -2.30927,0 -3.86668,-0.75186 -1.50371,-0.75185 -2.41668,-2.41667 -0.42963,-0.75186 -0.64445,-1.66482 -0.21481,-0.91297 -0.26852,-2.30927 -0.0537,-1.45001 -0.0537,-3.86668 0,-1.66482 0,-3.49076 0,-1.87963 0,-3.544454 0,-1.718524 0,-2.90001 0,-1.23519 0,-1.611117 h -3.70557 v -4.242608 h 3.65187 l -0.16112,-8.001881 h 2.14816 l -0.21481,8.001881 h 8.64632 v 4.242608 h -8.70003 q 0,1.127782 0,2.20186 0,1.020374 0,1.93334 0,3.490751 0.0537,5.800021 0.0537,2.25556 0.1074,3.59816 0.10741,1.3426 0.32223,2.14816 0.42963,1.61111 1.61111,2.30927 1.18149,0.64444 2.7389,0.64444 0.96667,0 1.93334,-0.21481 1.02038,-0.21482 1.77223,-0.42963 v 4.29631 q -0.48333,0.0537 -1.28889,0.16111 -0.80556,0.10741 -1.66482,0.10741 z"
         style="font-style:normal;font-variant:normal;font-weight:500;font-stretch:normal;font-size:53.7039px;font-family:Ojuju;-inkscape-font-specification:'Ojuju Medium';stroke:#eeeeee;stroke-width:0.264583;stroke-miterlimit:4;stroke-dasharray:none;stroke-opacity:1;fill:#111111;fill-opacity:1"
         id="path867" />
      <path
         d="m 258.79661,117.33939 q -2.30927,0 -3.86668,-0.75186 -1.50371,-0.75185 -2.41667,-2.41667 -0.42963,-0.75186 -0.64445,-1.66482 -0.21482,-0.91297 -0.26852,-2.30927 -0.0537,-1.45001 -0.0537,-3.86668 0,-1.66482 0,-3.49076 0,-1.87963 0,-3.544454 0,-1.718524 0,-2.90001 0,-1.23519 0,-1.611117 h -3.70557 v -4.242608 h 3.65186 l -0.16111,-8.001881 h 2.14816 l -0.21482,8.001881 h 8.64633 v 4.242608 h -8.70003 q 0,1.127782 0,2.20186 0,1.020374 0,1.93334 0,3.490751 0.0537,5.800021 0.0537,2.25556 0.10741,3.59816 0.10741,1.3426 0.32222,2.14816 0.42963,1.61111 1.61112,2.30927 1.18148,0.64444 2.7389,0.64444 0.96667,0 1.93334,-0.21481 1.02037,-0.21482 1.77223,-0.42963 v 4.29631 q -0.48334,0.0537 -1.2889,0.16111 -0.80556,0.10741 -1.66482,0.10741 z"
         style="font-style:normal;font-variant:normal;font-weight:500;font-stretch:normal;font-size:53.7039px;font-family:Ojuju;-inkscape-font-specification:'Ojuju Medium';stroke:#eeeeee;stroke-width:0.264583;stroke-miterlimit:4;stroke-dasharray:none;stroke-opacity:1;fill:#111111;fill-opacity:1"
         id="path869" />
      <path
         d="m 278.77437,117.33939 q -3.81298,0 -6.39077,-1.07408 -2.52408,-1.12778 -4.08149,-3.06112 -1.55742,-1.98705 -2.25557,-4.56484 -0.64444,-2.57778 -0.64444,-5.5315 0,-4.564828 1.55741,-7.464839 1.55741,-2.953714 4.1352,-4.403719 2.57779,-1.450006 5.58521,-1.450006 4.40372,0 6.82039,1.664821 2.47038,1.664821 3.49076,4.725943 1.02037,3.007419 1.02037,7.19632 h -20.89082 q 0.10741,1.98705 0.64445,3.81298 0.53704,1.77223 1.77223,3.16853 1.23519,1.3426 3.27594,2.14816 2.04074,0.75185 5.10187,0.75185 2.25556,0 4.2426,-0.32222 2.04075,-0.37593 4.40372,-1.02038 v 4.29631 q -2.14815,0.64445 -3.97408,0.85927 -1.77223,0.26852 -3.81298,0.26852 z m 7.35743,-15.84265 q 0,-3.651869 -2.47038,-5.746321 -2.47038,-2.148156 -6.9815,-2.148156 -2.52409,0 -4.67224,0.96667 -2.09445,0.96667 -3.38335,2.738899 -1.23519,1.772229 -1.3963,4.188908 z"
         style="font-style:normal;font-variant:normal;font-weight:500;font-stretch:normal;font-size:53.7039px;font-family:Ojuju;-inkscape-font-specification:'Ojuju Medium';stroke:#eeeeee;stroke-width:0.264583;stroke-miterlimit:4;stroke-dasharray:none;stroke-opacity:1;fill:#111111;fill-opacity:1"
         id="path871" />
      <path
         d="M 151.12068,184.59644 H 132.1095 q 0.0537,-3.86668 0.0537,-6.33706 0.0537,-2.47038 0.0537,-4.0815 0.0537,-1.66482 0.0537,-2.84631 0,-1.23518 0,-2.47037 0,-1.2889 0,-3.06113 0,-1.77223 0,-3.00742 0,-1.28889 0,-2.52408 0,-1.23519 -0.0537,-2.84631 0,-1.61111 -0.0537,-4.08149 -0.0537,-2.52408 -0.10741,-6.39077 h 2.57779 q -0.10741,5.96114 -0.21482,11.06301 -0.0537,5.04816 -0.10741,9.50559 0,4.45742 0,8.64633 0,1.3963 0.10741,2.09445 0.16111,0.64444 0.53704,0.96667 0.26852,0.16111 0.59074,0.26852 0.37593,0.10741 1.07408,0.16111 0.69815,0 1.87964,0 1.23519,0 2.63149,0 1.45,0 3.00742,0 1.61111,-0.0537 3.32964,-0.0537 1.77223,0 3.65186,0 z"
         style="font-style:normal;font-variant:normal;font-weight:500;font-stretch:normal;font-size:53.7039px;font-family:Ojuju;-inkscape-font-specification:'Ojuju Medium';stroke:#eeeeee;stroke-width:0.264583;stroke-miterlimit:4;stroke-dasharray:none;stroke-opacity:1;fill:#111111;fill-opacity:1"
         id="path873" />
      <path
         d="m 163.31141,147.43334 q -0.0537,0.85926 -0.10741,1.77223 -0.0537,0.91296 -0.10741,1.61112 0,0.64444 0,0.85926 0,0.21481 0.0537,0.37593 0.10741,0.1074 0.16112,0.21481 0.16111,0.10741 0.37592,0.10741 0.26852,0 1.18149,-0.26852 0.96667,-0.32222 3.16853,-1.28889 l 0.75185,2.47037 q -1.66482,0.26852 -2.52408,0.48334 -0.85926,0.21482 -1.23519,0.32222 -0.32222,0.10741 -0.48333,0.21482 -0.26852,0.16111 -0.26852,0.53704 0,0.21481 0.1074,0.42963 0.10741,0.21481 0.32223,0.53704 0.21481,0.26852 0.80556,0.91296 0.59074,0.64445 1.66482,1.87964 l -2.14816,1.55741 q -0.64445,-1.28889 -1.07408,-1.98704 -0.42963,-0.69815 -0.64444,-1.02037 -0.21482,-0.37593 -0.37593,-0.59075 -0.26852,-0.26852 -0.42963,-0.37592 -0.10741,-0.10741 -0.32223,-0.10741 -0.21481,0 -0.37592,0.10741 -0.16112,0.1074 -0.37593,0.37592 -0.10741,0.21482 -0.37593,0.59075 -0.26852,0.32222 -0.69815,1.02037 -0.37593,0.69815 -1.07408,1.98704 l -2.14815,-1.55741 q 1.12778,-1.23519 1.66482,-1.87964 0.59074,-0.64444 0.80556,-0.91296 0.26852,-0.32223 0.37592,-0.53704 0.10741,-0.21482 0.10741,-0.42963 0,-0.37593 -0.32222,-0.53704 -0.10741,-0.10741 -0.48334,-0.21482 -0.32222,-0.1074 -1.23519,-0.32222 -0.85926,-0.21482 -2.47038,-0.48334 l 0.69815,-2.47037 q 2.25557,0.96667 3.16853,1.28889 0.96667,0.26852 1.18149,0.26852 0.26852,0 0.37593,-0.10741 0.10741,-0.10741 0.16111,-0.21481 0.0537,-0.16112 0.0537,-0.37593 0,-0.21482 -0.0537,-0.85926 0,-0.69816 -0.0537,-1.61112 -0.0537,-0.91297 -0.10741,-1.77223 z"
         style="font-style:normal;font-variant:normal;font-weight:500;font-stretch:normal;font-size:53.7039px;font-family:Ojuju;-inkscape-font-specification:'Ojuju Medium';stroke:#eeeeee;stroke-width:0.264583;stroke-miterlimit:4;stroke-dasharray:none;stroke-opacity:1;fill:#111111;fill-opacity:1"
         id="path875" />
      <path
         d="m 185.92066,185.34829 q -5.26298,0 -8.16299,-3.54445 -2.84631,-3.54446 -2.84631,-10.15004 0,-6.65929 2.84631,-10.25745 2.90001,-3.59816 8.16299,-3.59816 2.47038,0 4.1352,0.64445 1.66482,0.64445 2.63149,1.61112 1.02037,0.91296 1.61112,1.77222 0.59074,0.85927 0.85926,1.18149 0.26852,0.26852 0.53704,0.26852 0.32222,0 0.37593,-0.37593 0.0537,-0.42963 0.0537,-1.50371 0,-0.48333 -0.0537,-1.23519 -0.0537,-0.80555 -0.10741,-1.61111 h 2.20186 q -0.0537,2.7389 -0.10741,4.67224 -0.0537,1.87963 -0.10741,3.27593 0,1.39631 0,2.57779 0,1.18149 0,2.57779 0,1.3426 0,2.52408 0,1.12778 0,2.52408 0.0537,1.3426 0.10741,3.27594 0.0537,1.87964 0.10741,4.61854 h -2.20186 q 0.0537,-0.80556 0.10741,-1.61112 0.0537,-0.80556 0.0537,-1.3963 0,-0.96667 -0.0537,-1.3426 -0.0537,-0.37593 -0.37593,-0.37593 -0.26852,0 -0.53704,0.32223 -0.26852,0.26852 -0.85926,1.12778 -0.59075,0.80556 -1.61112,1.77223 -0.96667,0.91297 -2.63149,1.55741 -1.66482,0.69815 -4.1352,0.69815 z m 0.32222,-4.1352 q 4.94076,0 7.46484,-2.36297 2.52409,-2.41667 2.52409,-7.19632 0,-4.83335 -2.52409,-7.25003 -2.52408,-2.41667 -7.46484,-2.41667 -4.77964,0 -7.25002,2.57778 -2.41668,2.52409 -2.41668,7.08892 0,4.56483 2.41668,7.08891 2.47038,2.47038 7.25002,2.47038 z"
         style="font-style:normal;font-variant:normal;font-weight:500;font-stretch:normal;font-size:53.7039px;font-family:Ojuju;-inkscape-font-specification:'Ojuju Medium';stroke:#eeeeee;stroke-width:0.264583;stroke-miterlimit:4;stroke-dasharray:none;stroke-opacity:1;fill:#111111;fill-opacity:1"
         id="path877" />
      <path
         d="m 213.20217,147.43334 q -0.0537,0.85926 -0.10741,1.77223 -0.0537,0.91296 -0.10741,1.61112 0,0.64444 0,0.85926 0,0.21481 0.0537,0.37593 0.10741,0.1074 0.16112,0.21481 0.16111,0.10741 0.37592,0.10741 0.26852,0 1.18149,-0.26852 0.96667,-0.32222 3.16853,-1.28889 l 0.75185,2.47037 q -1.66482,0.26852 -2.52408,0.48334 -0.85926,0.21482 -1.23519,0.32222 -0.32222,0.10741 -0.48333,0.21482 -0.26852,0.16111 -0.26852,0.53704 0,0.21481 0.1074,0.42963 0.10741,0.21481 0.32223,0.53704 0.21481,0.26852 0.80556,0.91296 0.59074,0.64445 1.66482,1.87964 l -2.14816,1.55741 q -0.64445,-1.28889 -1.07408,-1.98704 -0.42963,-0.69815 -0.64444,-1.02037 -0.21482,-0.37593 -0.37593,-0.59075 -0.26852,-0.26852 -0.42963,-0.37592 -0.10741,-0.10741 -0.32223,-0.10741 -0.21481,0 -0.37592,0.10741 -0.16112,0.1074 -0.37593,0.37592 -0.10741,0.21482 -0.37593,0.59075 -0.26852,0.32222 -0.69815,1.02037 -0.37593,0.69815 -1.07408,1.98704 l -2.14815,-1.55741 q 1.12778,-1.23519 1.66482,-1.87964 0.59074,-0.64444 0.80556,-0.91296 0.26852,-0.32223 0.37592,-0.53704 0.10741,-0.21482 0.10741,-0.42963 0,-0.37593 -0.32222,-0.53704 -0.10741,-0.10741 -0.48334,-0.21482 -0.32222,-0.1074 -1.23519,-0.32222 -0.85926,-0.21482 -2.47038,-0.48334 l 0.69815,-2.47037 q 2.25557,0.96667 3.16854,1.28889 0.96667,0.26852 1.18148,0.26852 0.26852,0 0.37593,-0.10741 0.10741,-0.10741 0.16111,-0.21481 0.0537,-0.16112 0.0537,-0.37593 0,-0.21482 -0.0537,-0.85926 0,-0.69816 -0.0537,-1.61112 -0.0537,-0.91297 -0.10741,-1.77223 z"
         style="font-style:normal;font-variant:normal;font-weight:500;font-stretch:normal;font-size:53.7039px;font-family:Ojuju;-inkscape-font-specification:'Ojuju Medium';stroke:#eeeeee;stroke-width:0.264583;stroke-miterlimit:4;stroke-dasharray:none;stroke-opacity:1;fill:#111111;fill-opacity:1"
         id="path879" />
      <path
         d="m 238.92625,185.34829 q -2.47038,0 -4.1352,-0.69815 -1.66482,-0.64444 -2.6852,-1.55741 -1.02037,-0.96667 -1.55741,-1.77223 -0.59074,-0.85926 -0.85926,-1.12778 -0.26852,-0.32223 -0.53704,-0.32223 -0.32223,0 -0.37593,0.37593 -0.0537,0.37593 -0.0537,1.3426 0,0.59074 0,1.3963 0.0537,0.80556 0.1074,1.61112 h -2.14815 q 0.0537,-3.49076 0.0537,-6.17595 0.0537,-2.6852 0.0537,-4.67224 0.0537,-2.04075 0.0537,-3.59816 0.0537,-1.55741 0.0537,-2.90001 0,-1.3426 0,-2.63149 0,-1.3426 0,-2.63149 0,-1.2889 -0.0537,-2.84631 0,-1.55741 -0.0537,-3.54446 0,-1.98704 -0.0537,-4.61853 0,-2.63149 -0.0537,-6.12225 h 2.14815 q 0,1.61112 -0.0537,3.86668 0,2.20186 -0.0537,4.61854 0,2.41667 0,4.56483 0,2.14816 0,3.65187 0,0.96667 0.0537,1.34259 0.0537,0.37593 0.37593,0.37593 0.26852,0 0.53704,-0.26852 0.26852,-0.32222 0.85926,-1.18149 0.53704,-0.85926 1.55741,-1.77222 1.02038,-0.96667 2.6852,-1.61112 1.66482,-0.64445 4.1352,-0.64445 5.26298,0 8.10929,3.59816 2.90001,3.54446 2.90001,10.15004 0,6.65928 -2.90001,10.25745 -2.84631,3.54445 -8.10929,3.54445 z m -0.37593,-4.1889 q 4.83335,0 7.25003,-2.52408 2.47038,-2.52409 2.47038,-7.08892 0,-4.56483 -2.47038,-7.08891 -2.41668,-2.52409 -7.25003,-2.52409 -4.88705,0 -7.46484,2.41668 -2.52409,2.41667 -2.52409,7.19632 0,4.83335 2.52409,7.25003 2.57779,2.36297 7.46484,2.36297 z"
         style="font-style:normal;font-variant:normal;font-weight:500;font-stretch:normal;font-size:53.7039px;font-family:Ojuju;-inkscape-font-specification:'Ojuju Medium';stroke:#eeeeee;stroke-width:0.264583;stroke-miterlimit:4;stroke-dasharray:none;stroke-opacity:1;fill:#111111;fill-opacity:1"
         id="path881" />
      <path
         d="m 263.79111,147.43334 q -0.0537,0.85926 -0.10741,1.77223 -0.0537,0.91296 -0.10741,1.61112 0,0.64444 0,0.85926 0,0.21481 0.0537,0.37593 0.10741,0.1074 0.16111,0.21481 0.16111,0.10741 0.37593,0.10741 0.26852,0 1.18148,-0.26852 0.96667,-0.32222 3.16853,-1.28889 l 0.75186,2.47037 q -1.66482,0.26852 -2.52409,0.48334 -0.85926,0.21482 -1.23519,0.32222 -0.32222,0.10741 -0.48333,0.21482 -0.26852,0.16111 -0.26852,0.53704 0,0.21481 0.10741,0.42963 0.10741,0.21481 0.32222,0.53704 0.21482,0.26852 0.80556,0.91296 0.59074,0.64445 1.66482,1.87964 l -2.14816,1.55741 q -0.64444,-1.28889 -1.07407,-1.98704 -0.42964,-0.69815 -0.64445,-1.02037 -0.21482,-0.37593 -0.37593,-0.59075 -0.26852,-0.26852 -0.42963,-0.37592 -0.10741,-0.10741 -0.32222,-0.10741 -0.21482,0 -0.37593,0.10741 -0.16111,0.1074 -0.37593,0.37592 -0.10741,0.21482 -0.37592,0.59075 -0.26852,0.32222 -0.69816,1.02037 -0.37592,0.69815 -1.07407,1.98704 l -2.14816,-1.55741 q 1.12778,-1.23519 1.66482,-1.87964 0.59074,-0.64444 0.80556,-0.91296 0.26852,-0.32223 0.37593,-0.53704 0.10741,-0.21482 0.10741,-0.42963 0,-0.37593 -0.32223,-0.53704 -0.10741,-0.10741 -0.48333,-0.21482 -0.32223,-0.1074 -1.23519,-0.32222 -0.85927,-0.21482 -2.47038,-0.48334 l 0.69815,-2.47037 q 2.25556,0.96667 3.16853,1.28889 0.96667,0.26852 1.18148,0.26852 0.26852,0 0.37593,-0.10741 0.10741,-0.10741 0.16111,-0.21481 0.0537,-0.16112 0.0537,-0.37593 0,-0.21482 -0.0537,-0.85926 0,-0.69816 -0.0537,-1.61112 -0.0537,-0.91297 -0.10741,-1.77223 z"
         style="font-style:normal;font-variant:normal;font-weight:500;font-stretch:normal;font-size:53.7039px;font-family:Ojuju;-inkscape-font-specification:'Ojuju Medium';stroke:#eeeeee;stroke-width:0.264583;stroke-miterlimit:4;stroke-dasharray:none;stroke-opacity:1;fill:#111111;fill-opacity:1"
         id="path883" />
    </g>
  </g>
  <g
     inkscape:groupmode="layer"
     id="layer5"
     inkscape:label="colors"
     style="display:inline"
     transform="translate(-31.666803,-76.449768)">
    <g
       id="g889"
       transform="matrix(1.0116374,0,0,1.0116374,10.402298,-2.8058881)"
       style="stroke:#eeeeee;stroke-width:0.26154;stroke-miterlimit:4;stroke-dasharray:none;stroke-opacity:1">
      <rect
         style="fill:#222060;fill-opacity:1;stroke:#eeeeee;stroke-width:0.26154;stroke-linecap:butt;stroke-linejoin:round;stroke-miterlimit:4;stroke-dasharray:none;stroke-opacity:1;paint-order:normal"
         id="rect909"
         width="37.722881"
         height="40.398361"
         x="159.71951"
         y="200.71039"
         ry="18.861441" />
      <rect
         style="fill:#2e2712;fill-opacity:1;stroke:#eeeeee;stroke-width:0.26154;stroke-linecap:butt;stroke-linejoin:round;stroke-miterlimit:4;stroke-dasharray:none;stroke-opacity:1;paint-order:normal"
         id="rect911"
         width="37.722881"
         height="40.398361"
         x="205.18942"
         y="200.7104"
         ry="18.861431" />
      <rect
         style="fill:#272828;fill-opacity:1;stroke:#eeeeee;stroke-width:0.26154;stroke-linecap:butt;stroke-linejoin:round;stroke-miterlimit:4;stroke-dasharray:none;stroke-opacity:1;paint-order:normal"
         id="rect915"
         width="37.722881"
         height="40.398361"
         x="250.65935"
         y="200.71039"
         ry="18.861431" />
    </g>
  </g>
</svg>
